<svg width="11" height="8" viewBox="0 0 11 8" fill="none" xmlns="http://www.w3.org/2000/svg">
<path fill-rule="evenodd" clip-rule="evenodd" d="M2.133 6.72013C2.82309 7.33513 3.73387 7.68598 4.83442 7.59676L10.7061 7.532L10.6707 6.64302L4.78583 6.70792L4.77232 6.70807L4.75889 6.70921C3.85381 6.78548 3.15185 6.50059 2.63308 6.03827C2.10771 5.57006 1.74763 4.89889 1.57215 4.17431C1.39629 3.44814 1.41285 2.69648 1.61118 2.08543C1.8078 1.47963 2.17478 1.02909 2.70224 0.83573L2.42125 -0.00825455C1.62334 0.284256 1.10491 0.96138 0.844682 1.76316C0.586154 2.55969 0.574415 3.49555 0.787393 4.37497C1.00075 5.25597 1.44666 6.10846 2.133 6.72013Z" fill="#313131"/>
</svg>
