<svg width="11" height="9" viewBox="0 0 11 9" fill="none" xmlns="http://www.w3.org/2000/svg">
<path fill-rule="evenodd" clip-rule="evenodd" d="M2.133 7.68986C2.82309 8.30485 3.73387 8.65571 4.83442 8.56649L10.7061 8.50173L10.6707 7.61274L4.78583 7.67765L4.77232 7.6778L4.75889 7.67893C3.85381 7.75521 3.15185 7.47032 2.63308 7.008C2.10771 6.53979 1.74763 5.86862 1.57215 5.14403C1.39629 4.41787 1.41285 3.66621 1.61118 3.05515C1.8078 2.44935 2.17478 1.99882 2.70224 1.80546L2.42125 0.961472C1.62334 1.25398 1.10491 1.93111 0.844682 2.73289C0.586154 3.52942 0.574415 4.46527 0.787393 5.34469C1.00075 6.2257 1.44666 7.07819 2.133 7.68986Z" fill="#313131"/>
</svg>
