<svg width="11" height="9" viewBox="0 0 11 9" fill="none" xmlns="http://www.w3.org/2000/svg">
<path fill-rule="evenodd" clip-rule="evenodd" d="M2.133 7.67423C2.82309 8.28923 3.73387 8.64008 4.83442 8.55087L10.7061 8.4861L10.6707 7.59712L4.78583 7.66203L4.77232 7.66217L4.75889 7.66331C3.85381 7.73958 3.15185 7.45469 2.63308 6.99237C2.10771 6.52416 1.74763 5.85299 1.57215 5.12841C1.39629 4.40224 1.41285 3.65058 1.61118 3.03953C1.8078 2.43373 2.17478 1.98319 2.70224 1.78983L2.42125 0.945847C1.62334 1.23836 1.10491 1.91548 0.844682 2.71726C0.586154 3.51379 0.574415 4.44965 0.787393 5.32907C1.00075 6.21007 1.44666 7.06256 2.133 7.67423Z" fill="#313131"/>
</svg>
