<svg width="11" height="8" viewBox="0 0 11 8" fill="none" xmlns="http://www.w3.org/2000/svg">
<path fill-rule="evenodd" clip-rule="evenodd" d="M1.87128 6.81681C2.56137 7.43181 3.47215 7.78266 4.5727 7.69344L10.4444 7.62868L10.409 6.7397L4.52411 6.8046L4.5106 6.80475L4.49717 6.80589C3.59209 6.88216 2.89013 6.59727 2.37136 6.13495C1.84599 5.66674 1.48591 4.99557 1.31043 4.27099C1.13457 3.54482 1.15113 2.79316 1.34946 2.18211C1.54608 1.57631 1.91306 1.12577 2.44052 0.932409L2.15954 0.0884251C1.36162 0.380936 0.843195 1.05806 0.582963 1.85984C0.324436 2.65637 0.312696 3.59223 0.525674 4.47165C0.739035 5.35265 1.18494 6.20514 1.87128 6.81681Z" fill="#313131"/>
</svg>
