<svg width="11" height="8" viewBox="0 0 11 8" fill="none" xmlns="http://www.w3.org/2000/svg">
<path fill-rule="evenodd" clip-rule="evenodd" d="M1.61152 6.73087C2.3016 7.34587 3.21239 7.69672 4.31293 7.60751L10.1846 7.54274L10.1492 6.65376L4.26434 6.71867L4.25084 6.71882L4.2374 6.71995C3.33233 6.79622 2.63037 6.51133 2.1116 6.04901C1.58623 5.5808 1.22614 4.90963 1.05067 4.18505C0.874802 3.45888 0.891367 2.70722 1.08969 2.09617C1.28632 1.49037 1.6533 1.03983 2.18075 0.846472L1.89977 0.00248763C1.10186 0.294999 0.583429 0.972122 0.323197 1.7739C0.06467 2.57044 0.0529308 3.50629 0.265908 4.38571C0.479269 5.26671 0.925171 6.1192 1.61152 6.73087Z" fill="#313131"/>
</svg>
