<svg width="1201" height="751" viewBox="0 0 1201 751" fill="none" xmlns="http://www.w3.org/2000/svg">
<path fill-rule="evenodd" clip-rule="evenodd" d="M70.0137 0.969727C31.3537 0.969727 0.0136719 32.3098 0.0136719 70.9697V680.97C0.0136719 719.63 31.3537 750.97 70.0137 750.97H1130.01C1168.67 750.97 1200.01 719.63 1200.01 680.97V70.9697C1200.01 32.3098 1168.67 0.969727 1130.01 0.969727H70.0137ZM120.014 60.9697C86.8766 60.9697 60.0137 87.8326 60.0137 120.97V630.97C60.0137 664.107 86.8766 690.97 120.014 690.97H1080.01C1113.15 690.97 1140.01 664.107 1140.01 630.97V120.97C1140.01 87.8326 1113.15 60.9697 1080.01 60.9697H120.014Z" fill="#FEC944"/>
</svg>
