<svg width="11" height="8" viewBox="0 0 11 8" fill="none" xmlns="http://www.w3.org/2000/svg">
<path fill-rule="evenodd" clip-rule="evenodd" d="M1.60957 6.78556C2.29965 7.40056 3.21043 7.75141 4.31098 7.66219L10.1827 7.59743L10.1473 6.70845L4.26239 6.77335L4.24888 6.7735L4.23545 6.77464C3.33037 6.85091 2.62841 6.56602 2.10964 6.1037C1.58427 5.63549 1.22419 4.96432 1.04871 4.23974C0.872849 3.51357 0.889413 2.76191 1.08774 2.15086C1.28436 1.54506 1.65134 1.09452 2.1788 0.901159L1.89782 0.0571751C1.09991 0.349686 0.581476 1.02681 0.321244 1.82859C0.0627169 2.62512 0.0509776 3.56098 0.263955 4.4404C0.477316 5.3214 0.923218 6.17389 1.60957 6.78556Z" fill="#313131"/>
</svg>
