<svg width="11" height="9" viewBox="0 0 11 9" fill="none" xmlns="http://www.w3.org/2000/svg">
<path fill-rule="evenodd" clip-rule="evenodd" d="M1.61152 7.20548C2.3016 7.82048 3.21239 8.17133 4.31293 8.08212L10.1846 8.01735L10.1492 7.12837L4.26434 7.19328L4.25084 7.19342L4.2374 7.19456C3.33233 7.27083 2.63037 6.98594 2.1116 6.52362C1.58623 6.05541 1.22614 5.38424 1.05067 4.65966C0.874802 3.93349 0.891367 3.18183 1.08969 2.57078C1.28632 1.96498 1.6533 1.51444 2.18075 1.32108L1.89977 0.477097C1.10186 0.769608 0.583429 1.44673 0.323197 2.24851C0.06467 3.04504 0.0529308 3.9809 0.265908 4.86032C0.479269 5.74132 0.925171 6.59381 1.61152 7.20548Z" fill="#313131"/>
</svg>
