<svg width="11" height="9" viewBox="0 0 11 9" fill="none" xmlns="http://www.w3.org/2000/svg">
<path fill-rule="evenodd" clip-rule="evenodd" d="M1.60957 7.32462C2.29965 7.93962 3.21043 8.29047 4.31098 8.20126L10.1827 8.13649L10.1473 7.24751L4.26239 7.31242L4.24888 7.31257L4.23545 7.3137C3.33037 7.38997 2.62841 7.10508 2.10964 6.64276C1.58427 6.17455 1.22419 5.50338 1.04871 4.7788C0.872849 4.05263 0.889413 3.30097 1.08774 2.68992C1.28436 2.08412 1.65134 1.63358 2.1788 1.44022L1.89782 0.596238C1.09991 0.888749 0.581476 1.56587 0.321244 2.36765C0.0627169 3.16419 0.0509776 4.10004 0.263955 4.97946C0.477316 5.86046 0.923218 6.71295 1.60957 7.32462Z" fill="#313131"/>
</svg>
