<svg width="11" height="9" viewBox="0 0 11 9" fill="none" xmlns="http://www.w3.org/2000/svg">
<path fill-rule="evenodd" clip-rule="evenodd" d="M2.133 7.18204C2.82309 7.79704 3.73387 8.1479 4.83442 8.05868L10.7061 7.99392L10.6707 7.10493L4.78583 7.16984L4.77232 7.16999L4.75889 7.17112C3.85381 7.24739 3.15185 6.96251 2.63308 6.50018C2.10771 6.03197 1.74763 5.3608 1.57215 4.63622C1.39629 3.91005 1.41285 3.1584 1.61118 2.54734C1.8078 1.94154 2.17478 1.49101 2.70224 1.29764L2.42125 0.45366C1.62334 0.74617 1.10491 1.42329 0.844682 2.22508C0.586154 3.02161 0.574415 3.95746 0.787393 4.83688C1.00075 5.71788 1.44666 6.57037 2.133 7.18204Z" fill="#313131"/>
</svg>
