<svg width="11" height="8" viewBox="0 0 11 8" fill="none" xmlns="http://www.w3.org/2000/svg">
<path fill-rule="evenodd" clip-rule="evenodd" d="M1.60957 6.83243C2.29965 7.44743 3.21043 7.79829 4.31098 7.70907L10.1827 7.64431L10.1473 6.75532L4.26239 6.82023L4.24888 6.82038L4.23545 6.82151C3.33037 6.89778 2.62841 6.6129 2.10964 6.15057C1.58427 5.68237 1.22419 5.01119 1.04871 4.28661C0.872849 3.56045 0.889413 2.80879 1.08774 2.19773C1.28436 1.59193 1.65134 1.1414 2.1788 0.948034L1.89782 0.10405C1.09991 0.396561 0.581476 1.07368 0.321244 1.87547C0.0627169 2.672 0.0509776 3.60785 0.263955 4.48727C0.477316 5.36828 0.923218 6.22076 1.60957 6.83243Z" fill="#313131"/>
</svg>
