<svg width="11" height="8" viewBox="0 0 11 8" fill="none" xmlns="http://www.w3.org/2000/svg">
<path fill-rule="evenodd" clip-rule="evenodd" d="M1.60957 6.80118C2.29965 7.41618 3.21043 7.76704 4.31098 7.67782L10.1827 7.61306L10.1473 6.72407L4.26239 6.78898L4.24888 6.78913L4.23545 6.79026C3.33037 6.86653 2.62841 6.58165 2.10964 6.11932C1.58427 5.65112 1.22419 4.97994 1.04871 4.25536C0.872849 3.5292 0.889413 2.77754 1.08774 2.16648C1.28436 1.56068 1.65134 1.11015 2.1788 0.916784L1.89782 0.0728001C1.09991 0.365311 0.581476 1.04243 0.321244 1.84422C0.0627169 2.64075 0.0509776 3.5766 0.263955 4.45602C0.477316 5.33703 0.923218 6.18951 1.60957 6.80118Z" fill="#313131"/>
</svg>
