<svg width="11" height="9" viewBox="0 0 11 9" fill="none" xmlns="http://www.w3.org/2000/svg">
<path fill-rule="evenodd" clip-rule="evenodd" d="M2.133 7.16642C2.82309 7.78142 3.73387 8.13227 4.83442 8.04305L10.7061 7.97829L10.6707 7.0893L4.78583 7.15421L4.77232 7.15436L4.75889 7.15549C3.85381 7.23177 3.15185 6.94688 2.63308 6.48456C2.10771 6.01635 1.74763 5.34518 1.57215 4.6206C1.39629 3.89443 1.41285 3.14277 1.61118 2.53172C1.8078 1.92591 2.17478 1.47538 2.70224 1.28202L2.42125 0.438035C1.62334 0.730545 1.10491 1.40767 0.844682 2.20945C0.586154 3.00598 0.574415 3.94184 0.787393 4.82126C1.00075 5.70226 1.44666 6.55475 2.133 7.16642Z" fill="#313131"/>
</svg>
