<svg width="11" height="9" viewBox="0 0 11 9" fill="none" xmlns="http://www.w3.org/2000/svg">
<path fill-rule="evenodd" clip-rule="evenodd" d="M1.87128 7.29337C2.56137 7.90837 3.47215 8.25922 4.5727 8.17001L10.4444 8.10524L10.409 7.21626L4.52411 7.28117L4.5106 7.28132L4.49717 7.28245C3.59209 7.35872 2.89013 7.07383 2.37136 6.61151C1.84599 6.1433 1.48591 5.47213 1.31043 4.74755C1.13457 4.02138 1.15113 3.26972 1.34946 2.65867C1.54608 2.05287 1.91306 1.60233 2.44052 1.40897L2.15954 0.564988C1.36162 0.857499 0.843195 1.53462 0.582963 2.3364C0.324436 3.13294 0.312696 4.06879 0.525674 4.94821C0.739035 5.82921 1.18494 6.6817 1.87128 7.29337Z" fill="#313131"/>
</svg>
