<svg width="11" height="8" viewBox="0 0 11 8" fill="none" xmlns="http://www.w3.org/2000/svg">
<path fill-rule="evenodd" clip-rule="evenodd" d="M1.87128 6.80118C2.56137 7.41618 3.47215 7.76704 4.5727 7.67782L10.4444 7.61306L10.409 6.72407L4.52411 6.78898L4.5106 6.78913L4.49717 6.79026C3.59209 6.86653 2.89013 6.58165 2.37136 6.11932C1.84599 5.65112 1.48591 4.97994 1.31043 4.25536C1.13457 3.5292 1.15113 2.77754 1.34946 2.16648C1.54608 1.56068 1.91306 1.11015 2.44052 0.916784L2.15954 0.0728001C1.36162 0.365311 0.843195 1.04243 0.582963 1.84422C0.324436 2.64075 0.312696 3.5766 0.525674 4.45602C0.739035 5.33703 1.18494 6.18951 1.87128 6.80118Z" fill="#313131"/>
</svg>
