<svg width="11" height="9" viewBox="0 0 11 9" fill="none" xmlns="http://www.w3.org/2000/svg">
<path fill-rule="evenodd" clip-rule="evenodd" d="M1.60957 7.29337C2.29965 7.90837 3.21043 8.25922 4.31098 8.17001L10.1827 8.10524L10.1473 7.21626L4.26239 7.28117L4.24888 7.28132L4.23545 7.28245C3.33037 7.35872 2.62841 7.07383 2.10964 6.61151C1.58427 6.1433 1.22419 5.47213 1.04871 4.74755C0.872849 4.02138 0.889413 3.26972 1.08774 2.65867C1.28436 2.05287 1.65134 1.60233 2.1788 1.40897L1.89782 0.564988C1.09991 0.857499 0.581476 1.53462 0.321244 2.3364C0.0627169 3.13294 0.0509776 4.06879 0.263955 4.94821C0.477316 5.82921 0.923218 6.6817 1.60957 7.29337Z" fill="#313131"/>
</svg>
