<svg width="11" height="9" viewBox="0 0 11 9" fill="none" xmlns="http://www.w3.org/2000/svg">
<path fill-rule="evenodd" clip-rule="evenodd" d="M1.6125 7.17618C2.30258 7.79118 3.21336 8.14204 4.31391 8.05282L10.1856 7.98806L10.1502 7.09907L4.26532 7.16398L4.25181 7.16413L4.23838 7.16526C3.3333 7.24153 2.63134 6.95665 2.11257 6.49432C1.5872 6.02612 1.22712 5.35494 1.05164 4.63036C0.875779 3.9042 0.892343 3.15254 1.09067 2.54148C1.28729 1.93568 1.65427 1.48515 2.18173 1.29178L1.90075 0.4478C1.10284 0.740311 0.584406 1.41743 0.324174 2.21922C0.0656465 3.01575 0.0539073 3.9516 0.266885 4.83102C0.480246 5.71203 0.926148 6.56451 1.6125 7.17618Z" fill="#313131"/>
</svg>
