<svg width="11" height="9" viewBox="0 0 11 9" fill="none" xmlns="http://www.w3.org/2000/svg">
<path fill-rule="evenodd" clip-rule="evenodd" d="M1.87128 7.309C2.56137 7.92399 3.47215 8.27485 4.5727 8.18563L10.4444 8.12087L10.409 7.23188L4.52411 7.29679L4.5106 7.29694L4.49717 7.29807C3.59209 7.37435 2.89013 7.08946 2.37136 6.62714C1.84599 6.15893 1.48591 5.48776 1.31043 4.76317C1.13457 4.03701 1.15113 3.28535 1.34946 2.67429C1.54608 2.06849 1.91306 1.61796 2.44052 1.4246L2.15954 0.580613C1.36162 0.873124 0.843195 1.55025 0.582963 2.35203C0.324436 3.14856 0.312696 4.08441 0.525674 4.96383C0.739035 5.84484 1.18494 6.69733 1.87128 7.309Z" fill="#313131"/>
</svg>
