<svg width="158" height="111" viewBox="0 0 158 111" fill="none" xmlns="http://www.w3.org/2000/svg">
<path d="M153.148 9.27701C150.793 7.70658 147.652 7.70658 145.296 9.27701L110.748 32.8334V16.3439C110.748 7.70658 103.682 0.639648 95.0446 0.639648H15.7408C7.10378 0.639648 0.0371094 7.70658 0.0371094 16.3439V94.8654C0.0371094 103.503 7.10378 110.57 15.7408 110.57H94.2594C102.896 110.57 109.963 103.503 109.963 94.8654V78.3759L144.511 101.932C146.082 102.717 147.652 103.503 149.222 103.503C150.793 103.503 151.578 103.503 153.148 102.718C155.504 101.147 157.074 98.7914 157.074 95.6506V16.3439C157.074 13.2031 155.504 10.8474 153.148 9.27701ZM94.2594 94.8654H15.7408V16.3439H94.2594V94.8654ZM141.37 79.9463L109.963 58.7455V51.6786L141.37 30.4778V79.9463Z" fill="#313131"/>
</svg>
