<svg width="1201" height="750" viewBox="0 0 1201 750" fill="none" xmlns="http://www.w3.org/2000/svg">
<path fill-rule="evenodd" clip-rule="evenodd" d="M70.5898 0C31.9299 0 0.589844 31.34 0.589844 70V680C0.589844 718.66 31.9299 750 70.5899 750H1130.59C1169.25 750 1200.59 718.66 1200.59 680V70C1200.59 31.3401 1169.25 0 1130.59 0H70.5898ZM120.59 60C87.4528 60 60.5898 86.8629 60.5898 120V630C60.5898 663.137 87.4528 690 120.59 690H1080.59C1113.73 690 1140.59 663.137 1140.59 630V120C1140.59 86.8629 1113.73 60 1080.59 60H120.59Z" fill="#FEC944"/>
</svg>
