<svg width="11" height="8" viewBox="0 0 11 8" fill="none" xmlns="http://www.w3.org/2000/svg">
<path fill-rule="evenodd" clip-rule="evenodd" d="M1.61152 6.88614C2.3016 7.50114 3.21239 7.852 4.31293 7.76278L10.1846 7.69802L10.1492 6.80903L4.26434 6.87394L4.25084 6.87409L4.2374 6.87522C3.33233 6.9515 2.63037 6.66661 2.1116 6.20428C1.58623 5.73608 1.22614 5.0649 1.05067 4.34032C0.874802 3.61416 0.891367 2.8625 1.08969 2.25144C1.28632 1.64564 1.6533 1.19511 2.18075 1.00175L1.89977 0.157761C1.10186 0.450272 0.583429 1.1274 0.323197 1.92918C0.06467 2.72571 0.0529308 3.66156 0.265908 4.54098C0.479269 5.42199 0.925171 6.27447 1.61152 6.88614Z" fill="#313131"/>
</svg>
