<svg width="11" height="9" viewBox="0 0 11 9" fill="none" xmlns="http://www.w3.org/2000/svg">
<path fill-rule="evenodd" clip-rule="evenodd" d="M2.133 7.21329C2.82309 7.82829 3.73387 8.17915 4.83442 8.08993L10.7061 8.02517L10.6707 7.13618L4.78583 7.20109L4.77232 7.20124L4.75889 7.20237C3.85381 7.27864 3.15185 6.99376 2.63308 6.53143C2.10771 6.06322 1.74763 5.39205 1.57215 4.66747C1.39629 3.9413 1.41285 3.18965 1.61118 2.57859C1.8078 1.97279 2.17478 1.52226 2.70224 1.32889L2.42125 0.48491C1.62334 0.77742 1.10491 1.45454 0.844682 2.25633C0.586154 3.05286 0.574415 3.98871 0.787393 4.86813C1.00075 5.74913 1.44666 6.60162 2.133 7.21329Z" fill="#313131"/>
</svg>
