<svg width="11" height="8" viewBox="0 0 11 8" fill="none" xmlns="http://www.w3.org/2000/svg">
<path fill-rule="evenodd" clip-rule="evenodd" d="M1.87128 6.76993C2.56137 7.38493 3.47215 7.73579 4.5727 7.64657L10.4444 7.58181L10.409 6.69282L4.52411 6.75773L4.5106 6.75788L4.49717 6.75901C3.59209 6.83528 2.89013 6.5504 2.37136 6.08807C1.84599 5.61987 1.48591 4.94869 1.31043 4.22411C1.13457 3.49795 1.15113 2.74629 1.34946 2.13523C1.54608 1.52943 1.91306 1.0789 2.44052 0.885534L2.15954 0.0415501C1.36162 0.334061 0.843195 1.01118 0.582963 1.81297C0.324436 2.6095 0.312696 3.54535 0.525674 4.42477C0.739035 5.30578 1.18494 6.15826 1.87128 6.76993Z" fill="#313131"/>
</svg>
