<svg width="11" height="9" viewBox="0 0 11 9" fill="none" xmlns="http://www.w3.org/2000/svg">
<path fill-rule="evenodd" clip-rule="evenodd" d="M1.60957 7.27775C2.29965 7.89274 3.21043 8.2436 4.31098 8.15438L10.1827 8.08962L10.1473 7.20063L4.26239 7.26554L4.24888 7.26569L4.23545 7.26682C3.33037 7.3431 2.62841 7.05821 2.10964 6.59589C1.58427 6.12768 1.22419 5.45651 1.04871 4.73192C0.872849 4.00576 0.889413 3.2541 1.08774 2.64304C1.28436 2.03724 1.65134 1.58671 2.1788 1.39335L1.89782 0.549363C1.09991 0.841874 0.581476 1.519 0.321244 2.32078C0.0627169 3.11731 0.0509776 4.05316 0.263955 4.93258C0.477316 5.81359 0.923218 6.66608 1.60957 7.27775Z" fill="#313131"/>
</svg>
