<svg width="11" height="9" viewBox="0 0 11 9" fill="none" xmlns="http://www.w3.org/2000/svg">
<path fill-rule="evenodd" clip-rule="evenodd" d="M2.133 7.70548C2.82309 8.32048 3.73387 8.67133 4.83442 8.58212L10.7061 8.51735L10.6707 7.62837L4.78583 7.69328L4.77232 7.69342L4.75889 7.69456C3.85381 7.77083 3.15185 7.48594 2.63308 7.02362C2.10771 6.55541 1.74763 5.88424 1.57215 5.15966C1.39629 4.43349 1.41285 3.68183 1.61118 3.07078C1.8078 2.46498 2.17478 2.01444 2.70224 1.82108L2.42125 0.977097C1.62334 1.26961 1.10491 1.94673 0.844682 2.74851C0.586154 3.54504 0.574415 4.4809 0.787393 5.36032C1.00075 6.24132 1.44666 7.09381 2.133 7.70548Z" fill="#313131"/>
</svg>
