<svg width="11" height="9" viewBox="0 0 11 9" fill="none" xmlns="http://www.w3.org/2000/svg">
<path fill-rule="evenodd" clip-rule="evenodd" d="M2.133 7.22794C2.82309 7.84294 3.73387 8.19379 4.83442 8.10458L10.7061 8.03981L10.6707 7.15083L4.78583 7.21574L4.77232 7.21589L4.75889 7.21702C3.85381 7.29329 3.15185 7.0084 2.63308 6.54608C2.10771 6.07787 1.74763 5.4067 1.57215 4.68212C1.39629 3.95595 1.41285 3.20429 1.61118 2.59324C1.8078 1.98744 2.17478 1.5369 2.70224 1.34354L2.42125 0.499558C1.62334 0.792069 1.10491 1.46919 0.844682 2.27098C0.586154 3.06751 0.574415 4.00336 0.787393 4.88278C1.00075 5.76378 1.44666 6.61627 2.133 7.22794Z" fill="#313131"/>
</svg>
