<svg width="11" height="9" viewBox="0 0 11 9" fill="none" xmlns="http://www.w3.org/2000/svg">
<path fill-rule="evenodd" clip-rule="evenodd" d="M1.87128 7.27775C2.56137 7.89274 3.47215 8.2436 4.5727 8.15438L10.4444 8.08962L10.409 7.20063L4.52411 7.26554L4.5106 7.26569L4.49717 7.26682C3.59209 7.3431 2.89013 7.05821 2.37136 6.59589C1.84599 6.12768 1.48591 5.45651 1.31043 4.73192C1.13457 4.00576 1.15113 3.2541 1.34946 2.64304C1.54608 2.03724 1.91306 1.58671 2.44052 1.39335L2.15954 0.549363C1.36162 0.841874 0.843195 1.519 0.582963 2.32078C0.324436 3.11731 0.312696 4.05316 0.525674 4.93258C0.739035 5.81359 1.18494 6.66608 1.87128 7.27775Z" fill="#313131"/>
</svg>
