<svg width="11" height="8" viewBox="0 0 11 8" fill="none" xmlns="http://www.w3.org/2000/svg">
<path fill-rule="evenodd" clip-rule="evenodd" d="M1.60957 6.81681C2.29965 7.43181 3.21043 7.78266 4.31098 7.69344L10.1827 7.62868L10.1473 6.7397L4.26239 6.8046L4.24888 6.80475L4.23545 6.80589C3.33037 6.88216 2.62841 6.59727 2.10964 6.13495C1.58427 5.66674 1.22419 4.99557 1.04871 4.27099C0.872849 3.54482 0.889413 2.79316 1.08774 2.18211C1.28436 1.57631 1.65134 1.12577 2.1788 0.932409L1.89782 0.0884251C1.09991 0.380936 0.581476 1.05806 0.321244 1.85984C0.0627169 2.65637 0.0509776 3.59223 0.263955 4.47165C0.477316 5.35265 0.923218 6.20514 1.60957 6.81681Z" fill="#313131"/>
</svg>
