<svg width="11" height="9" viewBox="0 0 11 9" fill="none" xmlns="http://www.w3.org/2000/svg">
<path fill-rule="evenodd" clip-rule="evenodd" d="M1.87128 7.32462C2.56137 7.93962 3.47215 8.29047 4.5727 8.20126L10.4444 8.13649L10.409 7.24751L4.52411 7.31242L4.5106 7.31257L4.49717 7.3137C3.59209 7.38997 2.89013 7.10508 2.37136 6.64276C1.84599 6.17455 1.48591 5.50338 1.31043 4.7788C1.13457 4.05263 1.15113 3.30097 1.34946 2.68992C1.54608 2.08412 1.91306 1.63358 2.44052 1.44022L2.15954 0.596238C1.36162 0.888749 0.843195 1.56587 0.582963 2.36765C0.324436 3.16419 0.312696 4.10004 0.525674 4.97946C0.739035 5.86046 1.18494 6.71295 1.87128 7.32462Z" fill="#313131"/>
</svg>
