<svg width="11" height="8" viewBox="0 0 11 8" fill="none" xmlns="http://www.w3.org/2000/svg">
<path fill-rule="evenodd" clip-rule="evenodd" d="M1.60957 6.76993C2.29965 7.38493 3.21043 7.73579 4.31098 7.64657L10.1827 7.58181L10.1473 6.69282L4.26239 6.75773L4.24888 6.75788L4.23545 6.75901C3.33037 6.83528 2.62841 6.5504 2.10964 6.08807C1.58427 5.61987 1.22419 4.94869 1.04871 4.22411C0.872849 3.49795 0.889413 2.74629 1.08774 2.13523C1.28436 1.52943 1.65134 1.0789 2.1788 0.885534L1.89782 0.0415501C1.09991 0.334061 0.581476 1.01118 0.321244 1.81297C0.0627169 2.6095 0.0509776 3.54535 0.263955 4.42477C0.477316 5.30578 0.923218 6.15826 1.60957 6.76993Z" fill="#313131"/>
</svg>
