<svg width="11" height="9" viewBox="0 0 11 9" fill="none" xmlns="http://www.w3.org/2000/svg">
<path fill-rule="evenodd" clip-rule="evenodd" d="M2.133 7.19767C2.82309 7.81267 3.73387 8.16352 4.83442 8.0743L10.7061 8.00954L10.6707 7.12055L4.78583 7.18546L4.77232 7.18561L4.75889 7.18674C3.85381 7.26302 3.15185 6.97813 2.63308 6.51581C2.10771 6.0476 1.74763 5.37643 1.57215 4.65185C1.39629 3.92568 1.41285 3.17402 1.61118 2.56297C1.8078 1.95716 2.17478 1.50663 2.70224 1.31327L2.42125 0.469285C1.62334 0.761795 1.10491 1.43892 0.844682 2.2407C0.586154 3.03723 0.574415 3.97309 0.787393 4.85251C1.00075 5.73351 1.44666 6.586 2.133 7.19767Z" fill="#313131"/>
</svg>
