<svg width="11" height="9" viewBox="0 0 11 9" fill="none" xmlns="http://www.w3.org/2000/svg">
<path fill-rule="evenodd" clip-rule="evenodd" d="M1.60957 7.309C2.29965 7.92399 3.21043 8.27485 4.31098 8.18563L10.1827 8.12087L10.1473 7.23188L4.26239 7.29679L4.24888 7.29694L4.23545 7.29807C3.33037 7.37435 2.62841 7.08946 2.10964 6.62714C1.58427 6.15893 1.22419 5.48776 1.04871 4.76317C0.872849 4.03701 0.889413 3.28535 1.08774 2.67429C1.28436 2.06849 1.65134 1.61796 2.1788 1.4246L1.89782 0.580613C1.09991 0.873124 0.581476 1.55025 0.321244 2.35203C0.0627169 3.14856 0.0509776 4.08441 0.263955 4.96383C0.477316 5.84484 0.923218 6.69733 1.60957 7.309Z" fill="#313131"/>
</svg>
