<svg width="11" height="8" viewBox="0 0 11 8" fill="none" xmlns="http://www.w3.org/2000/svg">
<path fill-rule="evenodd" clip-rule="evenodd" d="M1.87128 6.78556C2.56137 7.40056 3.47215 7.75141 4.5727 7.66219L10.4444 7.59743L10.409 6.70845L4.52411 6.77335L4.5106 6.7735L4.49717 6.77464C3.59209 6.85091 2.89013 6.56602 2.37136 6.1037C1.84599 5.63549 1.48591 4.96432 1.31043 4.23974C1.13457 3.51357 1.15113 2.76191 1.34946 2.15086C1.54608 1.54506 1.91306 1.09452 2.44052 0.901159L2.15954 0.0571751C1.36162 0.349686 0.843195 1.02681 0.582963 1.82859C0.324436 2.62512 0.312696 3.56098 0.525674 4.4404C0.739035 5.3214 1.18494 6.17389 1.87128 6.78556Z" fill="#313131"/>
</svg>
