<svg width="11" height="8" viewBox="0 0 11 8" fill="none" xmlns="http://www.w3.org/2000/svg">
<path fill-rule="evenodd" clip-rule="evenodd" d="M1.87128 6.83243C2.56137 7.44743 3.47215 7.79829 4.5727 7.70907L10.4444 7.64431L10.409 6.75532L4.52411 6.82023L4.5106 6.82038L4.49717 6.82151C3.59209 6.89778 2.89013 6.6129 2.37136 6.15057C1.84599 5.68237 1.48591 5.01119 1.31043 4.28661C1.13457 3.56045 1.15113 2.80879 1.34946 2.19773C1.54608 1.59193 1.91306 1.1414 2.44052 0.948034L2.15954 0.10405C1.36162 0.396561 0.843195 1.07368 0.582963 1.87547C0.324436 2.672 0.312696 3.60785 0.525674 4.48727C0.739035 5.36828 1.18494 6.22076 1.87128 6.83243Z" fill="#313131"/>
</svg>
