<svg width="158" height="111" viewBox="0 0 158 111" fill="none" xmlns="http://www.w3.org/2000/svg">
<path d="M153.15 9.27701C150.795 7.70658 147.654 7.70658 145.298 9.27701L110.75 32.8334V16.3439C110.75 7.70658 103.684 0.639648 95.0465 0.639648H15.7428C7.10573 0.639648 0.0390625 7.70658 0.0390625 16.3439V94.8654C0.0390625 103.503 7.10573 110.57 15.7428 110.57H94.2613C102.898 110.57 109.965 103.503 109.965 94.8654V78.3759L144.513 101.932C146.084 102.717 147.654 103.503 149.224 103.503C150.795 103.503 151.58 103.503 153.15 102.718C155.506 101.147 157.076 98.7914 157.076 95.6506V16.3439C157.076 13.2031 155.506 10.8474 153.15 9.27701ZM94.2613 94.8654H15.7428V16.3439H94.2613V94.8654ZM141.372 79.9463L109.965 58.7455V51.6786L141.372 30.4778V79.9463Z" fill="#313131"/>
</svg>
